<svg xmlns="http://www.w3.org/2000/svg" viewBox="0 0 512 512" role="img" aria-labelledby="title desc">
  <title id="title">Favicon Kesia Dutra</title>
  <desc id="desc">Monograma Kesia Dutra com brilho de quatro pontas.</desc>
  <rect x="24" y="24" width="464" height="464" rx="104" fill="#F0EDE4"/>
  <path d="m 273.24396,183.27 q -0.556,-4.17 -5.282,-5.56 -4.726,-1.39 -4.726,-5.004 0,-2.224 3.058,-3.614 3.058,-1.39 6.672,-1.39 1.946,0 11.676,0.834 9.73,0.556 11.954,0.556 2.224,0 11.954,-0.556 9.73,-0.834 11.676,-0.834 7.784,0 7.784,5.004 0,1.946 -1.946,3.892 -1.668,1.668 -4.448,1.946 -22.796,3.892 -40.866,23.63 l -30.302,33.082 q -0.556,0.556 -1.668,1.668 -0.834,0.834 -1.112,1.39 -0.278,0.278 -0.834,1.112 -0.278,0.556 -0.278,1.112 0,0.278 0.278,1.112 0.278,0.834 1.112,1.946 0.834,0.834 1.946,2.224 l 52.82,60.604 q 9.73,11.12 27.8,11.12 2.502,0 4.726,1.946 2.224,1.946 2.224,3.058 0,3.892 -5.282,7.784 -5.004,3.892 -13.066,3.892 -13.622,0 -23.074,-3.058 -9.174,-3.336 -16.958,-12.232 l -43.368,-49.762 q -8.062,-8.896 -12.51,-8.896 -4.17,0 -4.17,4.448 v 34.75 q 0,7.784 3.058,12.51 3.058,4.448 10.008,7.506 1.668,0.834 6.116,2.502 4.726,1.39 6.95,2.78 2.224,1.112 2.224,3.058 0,3.892 -8.896,4.726 -0.556,0 -6.394,-0.556 -5.56,-0.278 -13.622,-0.556 -7.784,-0.556 -13.622,-0.556 -5.838,0 -13.344,0.556 -7.228,0.278 -12.51,0.556 -5.004,0.556 -5.56,0.556 -9.174,-0.834 -9.174,-4.726 0,-1.946 2.224,-3.058 2.224,-1.39 6.672,-2.78 4.726,-1.668 6.394,-2.502 6.95,-3.058 10.008,-7.506 3.058,-4.726 3.058,-12.51 v -101.47 q 0,-2.502 -0.278,-4.448 0,-2.224 -0.834,-3.892 -0.834,-1.946 -1.39,-3.058 -0.278,-1.112 -1.946,-2.224 -1.668,-1.112 -2.224,-1.668 -0.556,-0.556 -3.336,-1.39 -2.502,-1.112 -3.614,-1.39 -0.834,-0.278 -4.448,-1.112 -3.336,-1.112 -4.726,-1.39 -4.448,-1.39 -4.448,-4.726 0,-2.224 3.058,-3.614 3.058,-1.39 6.672,-1.39 5.56,0 15.568,0.834 10.286,0.556 15.29,0.556 5.004,0 15.29,-0.556 10.564,-0.834 15.29,-0.834 3.614,0 6.672,1.39 3.058,1.39 3.058,3.614 0,3.336 -4.17,4.726 -1.39,0.278 -5.004,1.39 -3.336,0.834 -4.448,1.112 -0.834,0.278 -3.614,1.39 -2.502,0.834 -3.336,1.39 -0.556,0.556 -2.224,1.668 -1.668,1.112 -2.224,2.224 -0.278,1.112 -1.112,3.058 -0.834,1.668 -1.112,3.892 0,1.946 0,4.448 v 36.974 q 0,5.004 5.004,5.004 2.224,0 13.066,-11.954 l 34.472,-38.642 q 2.224,-1.946 1.668,-6.116 z" fill="#974315"/>
  <path d="M389 94        C394 119 401 126 426 131        C401 136 394 143 389 168        C384 143 377 136 352 131        C377 126 384 119 389 94Z" fill="#974315"/>
</svg>
