<svg xmlns="http://www.w3.org/2000/svg" width="720" height="1560" viewBox="0 0 720 1560">
  <rect width="720" height="1560" fill="#f1ebe5"/>
  <path d="M0 0h720v186H0z" fill="#fbfaf8"/>
  <rect x="44" y="46" width="76" height="76" rx="38" fill="#cdb8a6"/>
  <rect x="146" y="58" width="196" height="18" rx="9" fill="#8d8178" opacity=".62"/>
  <rect x="146" y="92" width="116" height="14" rx="7" fill="#b8aca3"/>
  <g fill="#fff" stroke="#ddd4cc" stroke-width="2">
    <rect x="42" y="238" width="534" height="164" rx="28"/>
    <rect x="210" y="458" width="468" height="132" rx="28"/>
    <rect x="42" y="646" width="478" height="124" rx="28"/>
    <rect x="156" y="826" width="522" height="174" rx="28"/>
  </g>
  <g fill="#cfc4ba">
    <rect x="74" y="278" width="412" height="18" rx="9"/>
    <rect x="74" y="314" width="350" height="18" rx="9"/>
    <rect x="74" y="350" width="266" height="18" rx="9"/>
    <rect x="250" y="498" width="338" height="18" rx="9"/>
    <rect x="250" y="534" width="250" height="18" rx="9"/>
    <rect x="74" y="684" width="340" height="18" rx="9"/>
    <rect x="74" y="720" width="246" height="18" rx="9"/>
    <rect x="196" y="866" width="392" height="18" rx="9"/>
    <rect x="196" y="902" width="330" height="18" rx="9"/>
    <rect x="196" y="938" width="222" height="18" rx="9"/>
  </g>
  <g transform="translate(120 1132)">
    <rect width="480" height="236" rx="34" fill="#f8f4ef" stroke="#d9c8b8" stroke-width="2"/>
    <path d="M240 48c-28 0-50 22-50 50s22 50 50 50 50-22 50-50-22-50-50-50zm-22 49 14 14 30-34" fill="none" stroke="#aa7652" stroke-width="9" stroke-linecap="round" stroke-linejoin="round"/>
    <text x="240" y="184" fill="#6f6259" font-family="Arial, sans-serif" font-size="22" font-weight="700" text-anchor="middle">PREVIA PROTEGIDA</text>
  </g>
</svg>
