<svg xmlns="http://www.w3.org/2000/svg" width="720" height="1560" viewBox="0 0 720 1560">
  <rect width="720" height="1560" fill="#eee8e1"/>
  <path d="M0 0h720v186H0z" fill="#fbfaf8"/>
  <rect x="44" y="46" width="76" height="76" rx="38" fill="#d8c6b6"/>
  <rect x="146" y="58" width="220" height="18" rx="9" fill="#8d8178" opacity=".62"/>
  <rect x="146" y="92" width="132" height="14" rx="7" fill="#b8aca3"/>
  <g fill="#fff" stroke="#ddd4cc" stroke-width="2">
    <rect x="42" y="248" width="488" height="142" rx="28"/>
    <rect x="174" y="434" width="504" height="122" rx="28"/>
    <rect x="42" y="610" width="536" height="168" rx="28"/>
    <rect x="232" y="832" width="446" height="132" rx="28"/>
  </g>
  <g fill="#cfc4ba">
    <rect x="74" y="282" width="360" height="18" rx="9"/>
    <rect x="74" y="318" width="286" height="18" rx="9"/>
    <rect x="214" y="470" width="364" height="18" rx="9"/>
    <rect x="214" y="506" width="252" height="18" rx="9"/>
    <rect x="74" y="650" width="410" height="18" rx="9"/>
    <rect x="74" y="686" width="336" height="18" rx="9"/>
    <rect x="74" y="722" width="242" height="18" rx="9"/>
    <rect x="272" y="870" width="320" height="18" rx="9"/>
    <rect x="272" y="906" width="238" height="18" rx="9"/>
  </g>
  <g transform="translate(120 1110)">
    <rect width="480" height="236" rx="34" fill="#f8f4ef" stroke="#d9c8b8" stroke-width="2"/>
    <path d="M240 48c-28 0-50 22-50 50s22 50 50 50 50-22 50-50-22-50-50-50zm-22 49 14 14 30-34" fill="none" stroke="#aa7652" stroke-width="9" stroke-linecap="round" stroke-linejoin="round"/>
    <text x="240" y="184" fill="#6f6259" font-family="Arial, sans-serif" font-size="22" font-weight="700" text-anchor="middle">PREVIA PROTEGIDA</text>
  </g>
</svg>
