<?xml version="1.0" encoding="UTF-8" standalone="no"?>
<svg
   width="600"
   height="166"
   viewBox="150 48 600 166"
   preserveAspectRatio="xMidYMid meet"
   shape-rendering="geometricPrecision"
   role="img"
   aria-labelledby="logoTitle logoDesc"
   version="1.1"
   id="svg2"
   xmlns="http://www.w3.org/2000/svg"
   xmlns:svg="http://www.w3.org/2000/svg">
  <defs
     id="defs2" />
  <title
     id="logoTitle">Késia Dutra Cabeleireira</title>
  <desc
     id="logoDesc">Logotipo tipográfico com o nome Késia Dutra e a palavra Cabeleireira abaixo.</desc>
  <g
     fill="currentColor"
     id="g2">
    <path
       d="m 219.04376,74.38 q -0.264,-1.98 -2.508,-2.64 -2.244,-0.66 -2.244,-2.376 0,-1.056 1.452,-1.716 1.452,-0.66 3.168,-0.66 0.924,0 5.544,0.396 4.62,0.264 5.676,0.264 1.056,0 5.676,-0.264 4.62,-0.396 5.544,-0.396 3.696,0 3.696,2.376 0,0.924 -0.924,1.848 -0.792,0.792 -2.112,0.924 -10.824,1.848 -19.404,11.22 l -14.388,15.708 q -0.264,0.264 -0.792,0.792 -0.396,0.396 -0.528,0.66 -0.132,0.132 -0.396,0.528 -0.132,0.264 -0.132,0.528 0,0.132 0.132,0.528 0.132,0.396 0.528,0.924 0.396,0.396 0.924,1.056 l 25.08,28.776 q 4.62,5.28 13.2,5.28 1.188,0 2.244,0.924 1.056,0.924 1.056,1.452 0,1.848 -2.508,3.696 -2.376,1.848 -6.204,1.848 -6.468,0 -10.956,-1.452 -4.356,-1.584 -8.052,-5.808 l -20.592,-23.628 q -3.828,-4.224 -5.94,-4.224 -1.98,0 -1.98,2.112 v 16.5 q 0,3.696 1.452,5.94 1.452,2.112 4.752,3.564 0.792,0.396 2.904,1.188 2.244,0.66 3.3,1.32 1.056,0.528 1.056,1.452 0,1.848 -4.224,2.244 -0.264,0 -3.036,-0.264 -2.64,-0.132 -6.468,-0.264 -3.696,-0.264 -6.468,-0.264 -2.772,0 -6.336,0.264 -3.432,0.132 -5.94,0.264 -2.376,0.264 -2.64,0.264 -4.356,-0.396 -4.356,-2.244 0,-0.924 1.056,-1.452 1.056,-0.66 3.168,-1.32 2.244,-0.792 3.036,-1.188 3.3,-1.452 4.752,-3.564 1.452,-2.244 1.452,-5.94 v -48.18 q 0,-1.188 -0.132,-2.112 0,-1.056 -0.396,-1.848 -0.396,-0.924 -0.66,-1.452 -0.132,-0.528 -0.924,-1.056 -0.792,-0.528 -1.056,-0.792 -0.264,-0.264 -1.584,-0.66 -1.188,-0.528 -1.716,-0.66 -0.396,-0.132 -2.112,-0.528 -1.584,-0.528 -2.244,-0.66 -2.112,-0.66 -2.112,-2.244 0,-1.056 1.452,-1.716 1.452,-0.66 3.168,-0.66 2.64,0 7.392,0.396 4.884,0.264 7.26,0.264 2.376,0 7.26,-0.264 5.016,-0.396 7.26,-0.396 1.716,0 3.168,0.66 1.452,0.66 1.452,1.716 0,1.584 -1.98,2.244 -0.66,0.132 -2.376,0.66 -1.584,0.396 -2.112,0.528 -0.396,0.132 -1.716,0.66 -1.188,0.396 -1.584,0.66 -0.264,0.264 -1.056,0.792 -0.792,0.528 -1.056,1.056 -0.132,0.528 -0.528,1.452 -0.396,0.792 -0.528,1.848 0,0.924 0,2.112 v 17.556 q 0,2.376 2.376,2.376 1.056,0 6.204,-5.676 l 16.368,-18.348 q 1.056,-0.924 0.792,-2.904 z m 55.74804,3.036 q -2.64,2.904 -3.96,2.904 -1.188,0 -1.188,-1.716 0,-1.32 3.828,-9.372 3.96,-8.052 6.204,-12.012 1.452,-2.376 3.564,-2.376 2.772,0 4.884,0.792 2.244,0.792 2.244,2.244 0,1.188 -5.808,8.184 -5.676,6.996 -9.768,11.352 z m -13.068,26.004 q 0,1.452 1.716,1.452 h 17.424 q 1.98,0 1.98,-4.092 0,-2.772 -2.376,-4.62 -2.376,-1.848 -5.412,-1.848 -5.412,0 -9.372,3.3 -3.96,3.3 -3.96,5.808 z m 32.604,-1.452 q 0,8.976 -3.96,8.976 h -27.852 q -1.98,0 -2.508,1.32 -0.528,1.452 -0.528,3.96 0,8.052 4.62,14.52 4.62,6.336 12.012,6.336 3.96,0 8.844,-1.584 l 4.884,-1.452 q 1.98,0 1.98,1.848 0,3.3 -5.94,6.732 -5.808,3.432 -14.652,3.432 -10.428,0 -16.632,-8.58 -6.204,-8.712 -6.204,-20.592 0,-12.144 8.184,-20.328 8.184,-8.316 20.328,-8.316 6.6,0 12.012,4.356 5.412,4.224 5.412,9.372 z M 316.2839,88.24 q 3.564,0 11.088,3.168 0.924,0.396 1.452,2.112 0.66,2.376 0.66,6.468 0,2.904 -1.584,2.904 -2.904,0 -3.96,-3.3 -0.66,-2.376 -3.3,-3.828 -2.508,-1.452 -5.676,-1.452 -2.508,0 -4.356,1.716 -1.716,1.584 -1.716,3.96 0,1.716 0.924,3.3 0.924,1.584 1.848,2.508 0.924,0.792 2.904,2.244 l 10.824,8.184 q 6.336,4.752 6.336,10.56 0,8.316 -5.808,13.86 -5.808,5.412 -14.124,5.412 -6.072,0 -8.712,-1.056 -1.32,-0.528 -1.716,-0.66 -0.264,-0.132 -0.792,-0.66 -0.528,-0.528 -0.792,-1.32 -2.244,-5.808 -2.244,-8.316 0,-4.224 1.452,-4.224 3.432,0 5.808,5.28 2.376,5.016 10.164,5.016 3.168,0 5.412,-1.848 2.376,-1.848 2.376,-4.752 0,-0.924 -0.132,-1.716 0,-0.792 -0.264,-1.584 -0.264,-0.792 -0.396,-1.188 -0.132,-0.528 -0.66,-1.056 -0.528,-0.66 -0.66,-0.924 -0.132,-0.264 -0.924,-0.792 -0.792,-0.66 -0.924,-0.792 0,-0.132 -1.056,-0.792 l -0.924,-0.66 -6.336,-4.488 q -3.696,-2.64 -5.676,-4.356 -1.98,-1.716 -3.696,-4.488 -1.716,-2.772 -1.716,-5.94 0,-6.732 5.016,-11.616 5.016,-4.884 11.88,-4.884 z m 28.42408,-26.268 q 2.112,-2.112 5.148,-2.112 3.036,0 5.148,2.112 2.112,2.112 2.112,5.016 0,3.036 -2.112,5.28 -2.112,2.112 -5.148,2.112 -3.036,0 -5.148,-2.112 -2.112,-2.244 -2.112,-5.28 0,-2.904 2.112,-5.016 z m 0.396,43.164 q 0,-1.716 -1.584,-3.828 -1.584,-2.112 -3.828,-2.904 -2.772,-1.056 -2.772,-2.772 0,-1.584 3.828,-3.3 1.32,-0.66 6.996,-2.904 5.808,-2.244 6.732,-2.244 1.056,0 1.32,0.792 0.264,0.792 0.264,3.036 v 39.732 q 0,2.772 1.188,5.28 1.32,2.376 3.828,3.168 5.676,1.716 5.676,3.432 0,2.64 -4.488,2.64 -1.584,0 -6.204,-0.396 -4.488,-0.396 -5.412,-0.396 -1.32,0 -5.808,0.396 -4.488,0.396 -5.94,0.396 -4.62,0 -4.62,-2.64 0,-1.716 5.808,-3.432 2.508,-0.792 3.696,-3.168 1.32,-2.508 1.32,-5.28 z m 36.07987,22.572 q 0,9.504 7.788,9.504 3.036,0 5.544,-1.32 2.64,-1.452 2.64,-3.696 v -12.408 q 0,-1.98 -3.036,-0.924 l -6.336,2.508 q -6.6,2.112 -6.6,6.336 z m 9.768,-39.468 q 8.052,0 12.672,3.96 4.62,3.96 4.62,9.504 v 31.284 q 0,1.584 1.452,2.64 1.584,1.056 3.3,1.056 1.056,0 2.64,-0.792 1.716,-0.924 2.112,-0.924 1.188,0 1.188,2.904 0,3.432 -3.828,5.808 -3.828,2.376 -8.052,2.376 -5.148,0 -9.108,-5.412 -0.66,-0.924 -1.056,-0.924 -0.264,-0.132 -0.924,0.66 -5.676,5.676 -13.464,5.676 -4.884,0 -8.976,-3.828 -4.092,-3.96 -4.092,-8.844 0,-9.372 7.128,-12.408 l 17.292,-7.26 q 3.036,-1.32 3.036,-3.036 v -6.468 q 0,-3.3 -3.036,-5.676 -3.036,-2.376 -6.6,-2.376 -2.376,0 -4.224,1.056 -1.848,0.924 -1.848,2.772 0,4.224 -1.32,5.148 -0.792,0.528 -3.696,1.716 -2.772,1.056 -3.696,1.056 -1.056,0 -1.056,-4.488 0,-2.244 1.452,-4.884 1.452,-2.64 3.564,-4.092 9.108,-6.204 14.52,-6.204 z M 472.088,76.228 v 52.536 q 0,6.732 3.96,8.976 4.092,2.244 17.16,2.244 11.088,0 17.556,-10.428 6.468,-10.428 6.468,-24.024 0,-14.388 -9.768,-23.892 -9.768,-9.636 -23.892,-9.636 -4.62,0 -8.052,1.188 -3.432,1.056 -3.432,3.036 z m 15.84,-10.164 q 11.22,0 21.12,4.488 10.032,4.356 16.5,12.936 6.468,8.58 6.468,19.404 0,8.712 -2.508,16.368 -2.508,7.656 -7.392,13.728 -4.884,5.94 -12.936,9.504 -8.052,3.432 -18.348,3.432 -7.128,0 -15.312,-0.792 -8.052,-0.66 -10.296,-0.66 -2.64,0 -6.204,0.264 -3.432,0.132 -5.94,0.264 -2.376,0.264 -2.64,0.264 -4.356,-0.396 -4.356,-2.244 0,-0.924 1.056,-1.452 1.056,-0.66 3.168,-1.32 2.244,-0.792 3.036,-1.188 6.204,-2.772 6.204,-9.504 v -48.18 q 0,-1.452 -0.264,-2.508 -0.132,-1.056 -0.396,-1.848 -0.132,-0.792 -0.924,-1.452 -0.66,-0.66 -1.056,-1.056 -0.264,-0.396 -1.584,-0.792 -1.188,-0.528 -1.716,-0.66 -0.528,-0.264 -2.376,-0.66 -1.716,-0.528 -2.508,-0.792 -2.112,-0.66 -2.112,-2.244 0,-2.376 4.62,-2.376 2.112,0 5.28,0.132 3.3,0 5.28,0 4.092,0 13.068,-0.528 8.976,-0.528 13.068,-0.528 z m 88.87995,36.168 q 0,-5.148 -6.204,-6.072 -3.036,-0.528 -3.036,-2.508 0,-1.056 1.188,-1.98 1.188,-1.056 2.64,-1.32 1.716,-0.264 5.412,-0.792 3.696,-0.528 6.204,-0.924 2.64,-0.396 3.168,-0.396 1.056,0 1.32,0.792 0.264,0.66 0.264,2.772 v 44.088 q 0,1.716 2.112,1.716 0.924,0 3.036,-0.396 2.112,-0.396 2.508,-0.396 0.528,0 1.056,0.792 0.66,0.66 0.66,1.32 0,2.112 -2.376,3.3 -1.848,0.924 -7.788,2.64 -5.94,1.716 -7.392,1.716 -1.452,0 -1.848,-1.848 -0.264,-0.66 -0.528,-2.376 -0.132,-1.848 -0.264,-2.64 -0.66,-1.584 -0.924,-1.452 -0.132,0 -1.716,1.32 -4.356,3.432 -8.184,4.752 -3.696,1.188 -9.636,1.188 -5.544,0 -9.372,-5.016 -3.696,-5.016 -3.696,-11.088 v -26.136 q 0,-5.28 -3.564,-6.6 -2.772,-1.056 -2.772,-3.036 0,-2.244 3.564,-2.772 2.244,-0.396 5.016,-1.056 2.904,-0.66 4.752,-1.056 1.848,-0.528 2.376,-0.528 1.056,0 1.32,0.792 0.264,0.66 0.264,2.772 v 33.264 q 0,5.016 2.508,8.712 2.508,3.564 6.732,3.564 5.544,0 9.372,-2.904 3.828,-2.904 3.828,-7.26 z m 43.86811,43.824 q -6.468,0 -10.428,-3.564 -3.828,-3.564 -3.828,-11.484 V 99.592 q 0,-0.132 0,-0.528 0.132,-0.396 0,-0.396 0,-0.132 -0.264,-0.396 -0.132,-0.264 -0.66,-0.264 -0.396,-0.132 -1.188,-0.132 -0.792,-0.132 -1.98,-0.132 -1.188,0 -2.772,-0.396 -1.452,-0.528 -1.452,-1.452 0,-0.792 1.188,-1.98 1.32,-1.32 4.224,-3.564 2.904,-2.244 3.432,-2.772 0.396,-0.264 1.848,-1.584 1.452,-1.452 2.508,-2.376 1.056,-0.924 2.244,-1.716 1.32,-0.924 1.98,-0.924 1.848,0 1.848,3.3 v 3.696 q 0,1.98 2.904,1.98 h 12.804 q 2.64,0 2.64,3.036 0,1.188 -1.056,3.036 -0.924,1.716 -2.112,1.716 h -13.068 q -2.112,0 -2.112,2.508 v 24.684 q 0,6.732 1.584,9.504 1.716,2.64 5.28,2.64 2.904,0 6.072,-1.188 3.168,-1.188 3.432,-1.188 1.98,0 1.98,1.848 0,2.64 -4.884,6.072 -4.752,3.432 -10.164,3.432 z m 34.4961,-1.584 q -1.188,0 -5.808,0.396 -4.488,0.396 -5.94,0.396 -3.96,0 -3.96,-2.64 0,-1.848 5.148,-3.432 2.508,-0.792 3.696,-3.168 1.32,-2.508 1.32,-5.28 v -25.608 q 0,-1.716 -1.584,-3.828 -1.584,-2.112 -3.828,-2.904 -2.772,-1.056 -2.772,-2.772 0,-1.584 3.828,-3.3 1.32,-0.66 6.996,-2.904 5.808,-2.244 6.732,-2.244 1.056,0 1.32,0.792 0.264,0.792 0.264,2.904 v 3.3 q 0.264,1.056 1.056,0.66 0.792,-0.528 1.584,-1.452 1.716,-1.848 5.28,-3.432 3.564,-1.716 6.336,-1.716 7.524,0 7.524,5.544 0,3.564 -3.96,7.524 -1.188,1.188 -2.112,1.188 -0.924,0 -4.092,-1.848 -3.036,-1.848 -4.488,-1.848 -2.376,0 -4.62,1.848 -2.244,1.848 -2.244,4.356 l -0.264,25.74 q 0,2.508 1.848,5.148 1.98,2.508 4.62,3.3 5.412,1.584 5.412,3.432 0,2.64 -4.488,2.64 -1.584,0 -6.732,-0.396 -5.148,-0.396 -6.072,-0.396 z m 40.83205,-16.764 q 0,9.504 7.788,9.504 3.036,0 5.544,-1.32 2.64,-1.452 2.64,-3.696 v -12.408 q 0,-1.98 -3.036,-0.924 l -6.336,2.508 q -6.6,2.112 -6.6,6.336 z m 9.768,-39.468 q 8.052,0 12.672,3.96 4.62,3.96 4.62,9.504 v 31.284 q 0,1.584 1.452,2.64 1.584,1.056 3.3,1.056 1.056,0 2.64,-0.792 1.716,-0.924 2.112,-0.924 1.188,0 1.188,2.904 0,3.432 -3.828,5.808 -3.828,2.376 -8.052,2.376 -5.148,0 -9.108,-5.412 -0.66,-0.924 -1.056,-0.924 -0.264,-0.132 -0.924,0.66 -5.676,5.676 -13.464,5.676 -4.884,0 -8.976,-3.828 -4.092,-3.96 -4.092,-8.844 0,-9.372 7.128,-12.408 l 17.292,-7.26 q 3.036,-1.32 3.036,-3.036 v -6.468 q 0,-3.3 -3.036,-5.676 -3.036,-2.376 -6.6,-2.376 -2.376,0 -4.224,1.056 -1.848,0.924 -1.848,2.772 0,4.224 -1.32,5.148 -0.792,0.528 -3.696,1.716 -2.772,1.056 -3.696,1.056 -1.056,0 -1.056,-4.488 0,-2.244 1.452,-4.884 1.452,-2.64 3.564,-4.092 9.108,-6.204 14.52,-6.204 z"
       id="text1"
       style="font-size:132px;font-family:'EB Garamond', Garamond, Georgia, serif;letter-spacing:-2.2;text-anchor:middle;fill:#000000"
       aria-label="Késia Dutra" />
    <path
       d="m 295.9248,188.31445 q -2.51367,0 -3.91015,1.62207 -1.39649,1.61133 -1.39649,4.42578 0,2.78223 1.4502,4.4795 1.46094,1.68652 3.94238,1.68652 3.17969,0 4.78028,-3.14746 l 1.67578,0.83789 q -0.93457,1.95508 -2.63184,2.97559 -1.68652,1.0205 -3.9209,1.0205 -2.28808,0 -3.96386,-0.94531 -1.66504,-0.95605 -2.5459,-2.71777 -0.87012,-1.77246 -0.87012,-4.18946 0,-3.62011 1.95508,-5.67187 1.95508,-2.05176 5.41406,-2.05176 2.41699,0 4.03906,0.94531 1.62207,0.94532 2.38477,2.80372 l -1.94434,0.64453 q -0.52636,-1.32129 -1.69726,-2.01953 -1.16016,-0.69825 -2.76075,-0.69825 z M 330.84082,202 l -1.72949,-4.42578 h -6.89649 L 320.47461,202 h -2.12695 l 6.17675,-15.13574 h 2.33106 L 332.93555,202 Z m -5.17773,-13.58887 -0.0967,0.30078 q -0.26856,0.89161 -0.79493,2.28809 l -1.93359,4.97363 h 5.66113 l -1.94433,-4.99511 q -0.30078,-0.74122 -0.60157,-1.67579 z m 35.8291,9.32422 q 0,2.01953 -1.47168,3.14746 Q 358.54883,202 355.92773,202 h -6.14453 v -15.13574 h 5.5 q 5.32813,0 5.32813,3.67383 0,1.34277 -0.75196,2.25586 -0.75195,0.91308 -2.12695,1.2246 1.80469,0.21485 2.78223,1.21387 0.97754,0.98828 0.97754,2.50293 z m -2.07324,-0.16113 q 0,-2.67481 -3.75977,-2.67481 h -3.82422 v 5.45704 h 3.98535 q 1.87989,0 2.73926,-0.69825 0.85938,-0.69824 0.85938,-2.08398 z m -0.87012,-6.78906 q 0,-1.22461 -0.83789,-1.75098 -0.83789,-0.52637 -2.42774,-0.52637 h -3.44824 v 4.79102 h 3.44824 q 1.64356,0 2.44922,-0.61231 0.81641,-0.62304 0.81641,-1.90136 z M 379.45703,202 v -15.13574 h 11.4834 v 1.67578 h -9.43164 v 4.85547 h 8.78711 v 1.65429 h -8.78711 v 5.27442 h 9.87207 V 202 Z m 29.67383,0 v -15.13574 h 2.05176 v 13.45996 h 7.64843 V 202 Z m 27.23535,0 v -15.13574 h 11.4834 v 1.67578 h -9.43164 v 4.85547 h 8.78711 v 1.65429 h -8.78711 v 5.27442 h 9.87207 V 202 Z m 29.89941,0 v -15.13574 h 2.05176 V 202 Z m 31.58594,0 -3.93164,-6.28418 H 489.2041 V 202 h -2.05176 v -15.13574 h 7.12207 q 2.55664,0 3.94239,1.14941 1.39648,1.13867 1.39648,3.17969 0,1.68652 -0.98828,2.83594 -0.97754,1.14941 -2.70703,1.45019 L 500.21484,202 Z m -0.30078,-10.78516 q 0,-1.32129 -0.90234,-2.00879 -0.8916,-0.69824 -2.57813,-0.69824 h -4.86621 v 5.58594 h 4.95215 q 1.62207,0 2.50293,-0.75195 0.8916,-0.7627 0.8916,-2.12696 z M 518.04004,202 v -15.13574 h 11.4834 v 1.67578 h -9.43164 v 4.85547 h 8.78711 v 1.65429 h -8.78711 v 5.27442 h 9.87207 V 202 Z m 29.89941,0 v -15.13574 h 2.05176 V 202 Z m 31.58594,0 -3.93164,-6.28418 h -4.71582 V 202 h -2.05176 v -15.13574 h 7.12207 q 2.55664,0 3.94238,1.14941 1.39649,1.13867 1.39649,3.17969 0,1.68652 -0.98828,2.83594 -0.97754,1.14941 -2.70703,1.45019 L 581.88867,202 Z m -0.30078,-10.78516 q 0,-1.32129 -0.90234,-2.00879 -0.89161,-0.69824 -2.57813,-0.69824 h -4.86621 v 5.58594 h 4.95215 q 1.62207,0 2.50293,-0.75195 0.8916,-0.7627 0.8916,-2.12696 z M 610.44531,202 l -1.72949,-4.42578 h -6.89648 L 600.0791,202 h -2.12695 l 6.17676,-15.13574 h 2.33105 L 612.54004,202 Z m -5.17773,-13.58887 -0.0967,0.30078 q -0.26856,0.89161 -0.79492,2.28809 l -1.9336,4.97363 h 5.66114 l -1.94434,-4.99511 q -0.30078,-0.74122 -0.60156,-1.67579 z"
       id="text2"
       style="font-size:22px;font-family:Arimo, Arial, sans-serif;letter-spacing:15;text-anchor:middle;fill:#000000"
       aria-label="CABELEIREIRA" />
  </g>
</svg>
